<?xml version="1.0" encoding="UTF-8"?>
<svg width="34px" height="34px" viewBox="0 0 34 34" version="1.1" xmlns="http://www.w3.org/2000/svg" xmlns:xlink="http://www.w3.org/1999/xlink">
    <!-- Generator: Sketch 50.2 (55047) - http://www.bohemiancoding.com/sketch -->
    <title>White</title>
    <desc>Created with Sketch.</desc>
    <defs></defs>
    <g id="Page-1" stroke="none" stroke-width="1" fill="none" fill-rule="evenodd">
        <g id="PocketID" transform="translate(-155.000000, -28.000000)" fill="#131313">
            <g id="White" transform="translate(155.000000, 28.000000)">
                <path d="M0.0472222222,17 C0.0472222222,12.2769551 3.8760066,8.44817073 8.59905149,8.44817073 L15.5361111,8.44817073 L15.5361111,25.5518293 L8.59905149,25.5518293 C3.8760066,25.5518293 0.0472222222,21.7230449 0.0472222222,17 Z M2.31504065,17 C2.31504065,20.4635663 5.12281586,23.2713415 8.58638211,23.2713415 L13.648374,23.2713415 L13.648374,10.7286585 L8.58638211,10.7286585 C5.12281586,10.7286585 2.31504065,13.5364337 2.31504065,17 Z" id="Combined-Shape"></path>
                <path d="M18.4638889,17 C18.4638889,12.2769551 22.2926733,8.44817073 27.0157182,8.44817073 L33.9527778,8.44817073 L33.9527778,25.5518293 L27.0157182,25.5518293 C22.2926733,25.5518293 18.4638889,21.7230449 18.4638889,17 Z M20.7317073,17 C20.7317073,20.4635663 23.5394825,23.2713415 27.0030488,23.2713415 L32.0650407,23.2713415 L32.0650407,10.7286585 L27.0030488,10.7286585 C23.5394825,10.7286585 20.7317073,13.5364337 20.7317073,17 Z" id="Combined-Shape" transform="translate(26.208333, 17.000000) rotate(-180.000000) translate(-26.208333, -17.000000) "></path>
                <path d="M9.25555556,7.79166667 C9.25555556,3.06862178 13.0843399,-0.760162602 17.8073848,-0.760162602 L24.7444444,-0.760162602 L24.7444444,16.3434959 L17.8073848,16.3434959 C13.0843399,16.3434959 9.25555556,12.5147116 9.25555556,7.79166667 Z M11.523374,7.79166667 C11.523374,11.2552329 14.3311492,14.0630081 17.7947154,14.0630081 L22.8567073,14.0630081 L22.8567073,1.5203252 L17.7947154,1.5203252 C14.3311492,1.5203252 11.523374,4.32810042 11.523374,7.79166667 Z" id="Combined-Shape" transform="translate(17.000000, 7.791667) rotate(-270.000000) translate(-17.000000, -7.791667) "></path>
                <path d="M9.25555556,26.2083333 C9.25555556,21.4852884 13.0843399,17.6565041 17.8073848,17.6565041 L24.7444444,17.6565041 L24.7444444,34.7601626 L17.8073848,34.7601626 C13.0843399,34.7601626 9.25555556,30.9313782 9.25555556,26.2083333 Z M11.523374,26.2083333 C11.523374,29.6718996 14.3311492,32.4796748 17.7947154,32.4796748 L22.8567073,32.4796748 L22.8567073,19.9369919 L17.7947154,19.9369919 C14.3311492,19.9369919 11.523374,22.7447671 11.523374,26.2083333 Z" id="Combined-Shape" transform="translate(17.000000, 26.208333) rotate(-90.000000) translate(-17.000000, -26.208333) "></path>
            </g>
        </g>
    </g>
</svg>